<?xml version="1.0" standalone="no"?>
<!DOCTYPE svg PUBLIC "-//W3C//DTD SVG 20010904//EN"
 "http://www.w3.org/TR/2001/REC-SVG-20010904/DTD/svg10.dtd">
<svg version="1.0" xmlns="http://www.w3.org/2000/svg"
 width="128.000000pt" height="128.000000pt" viewBox="0 0 128.000000 128.000000"
 preserveAspectRatio="xMidYMid meet">

<g transform="translate(0.000000,128.000000) scale(0.100000,-0.100000)"
fill="#000000" stroke="none">
<path d="M0 965 l0 -316 142 116 c78 63 150 115 159 115 25 0 42 -26 35 -52
-4 -13 -56 -63 -117 -112 -61 -49 -107 -92 -102 -95 4 -4 56 -47 116 -95 62
-50 107 -94 107 -105 0 -22 -19 -41 -42 -41 -16 0 -271 197 -290 225 -4 5 -8
-128 -8 -297 l0 -308 640 0 640 0 0 308 c0 169 -4 302 -8 296 -19 -27 -273
-224 -289 -224 -24 0 -43 19 -43 42 0 10 47 55 115 110 132 107 133 87 -10
199 -52 41 -98 84 -101 97 -7 26 11 52 35 52 9 0 81 -52 159 -115 l142 -115 0
315 0 315 -640 0 -640 0 0 -315z m953 204 c8 -13 -50 -133 -264 -545 l-274
-529 -35 0 c-27 0 -36 4 -38 20 -2 16 479 963 535 1053 16 27 60 27 76 1z"/>
</g>
</svg>
